<?xml version="1.0" encoding="UTF-8"?>
<svg id="Layer_2" data-name="Layer 2" xmlns="http://www.w3.org/2000/svg" viewBox="0 0 180 180">
  <defs>
    <style>
      .cls-1 {
        fill: #fff;
      }

      .cls-2 {
        fill: #6f468e;
      }
    </style>
  </defs>
  <g id="Layer_1-2" data-name="Layer 1">
    <path class="cls-2" d="M179.54,80.83c5.63,56.92-41.81,104.35-98.72,98.72C38.7,175.37,4.63,141.31.46,99.19-5.19,42.27,42.26-5.18,99.19.46c42.12,4.17,76.19,38.25,80.36,80.37Z"/>
    <g>
      <path class="cls-1" d="M83.28,52.18h-40.07v24.02h38.91v14.18h-38.91v33.4h40.07v14.18H28.12V38h55.15v14.18Z"/>
      <path class="cls-1" d="M103,137.95h-17.8l51.08-63.05h17.87l-51.14,63.05ZM134.88,108.86l22.94,29.09h-17.35l-14.46-18.54,8.87-10.55ZM108.94,98.19l-18.37-23.29h17.35l9.76,12.74-8.74,10.55Z"/>
    </g>
  </g>
</svg>