<svg width="700" height="144" viewBox="0 0 700 144" id="examine-logo" fill="#6F468E" xmlns="http://www.w3.org/2000/svg" class="h-4 w-18 fill-white lg:h-8 lg:w-25 lg:fill-primary 2xl:w-36"><g clip-path="url(#clip0_12_7)"><path d="M83.5313 19.8714H22.8042V53.6529H81.7675V73.6412H22.8042V120.631H83.5313V140.503H0V0H83.5313V19.8714Z"></path><path d="M113.39 140.502H86.4277L163.786 51.8984H190.873L113.39 140.502ZM161.644 99.5899L196.417 140.502H170.211L148.289 114.435L161.644 99.5899ZM122.461 84.6279L94.6171 51.8984H120.949L135.69 69.7827L122.461 84.6279Z"></path><path d="M268.358 51.8999H290.532V140.503H268.358V131.269C259.286 139.217 249.459 143.075 239.002 143.075C225.773 143.075 214.938 138.633 206.245 129.749C197.677 120.749 193.394 109.41 193.394 95.8508C193.394 82.5253 197.677 71.5375 206.245 62.6538C214.308 54.0039 226.151 49.0945 238.372 49.3283C249.459 49.3283 259.412 53.5364 268.232 62.0694L268.358 51.8999ZM215.946 95.9677C215.946 104.501 218.34 111.397 223.253 116.774C227.915 122.034 234.97 124.957 242.278 124.84C250.467 124.84 257.019 122.268 262.058 117.008C267.098 111.631 269.618 104.735 269.618 96.4353C269.618 88.136 267.098 81.2395 262.058 75.8625C257.145 70.6024 249.963 67.6801 242.404 67.9139C235.096 67.797 228.041 70.7193 223.379 75.9794C218.466 81.2395 215.946 87.9022 215.946 95.9677Z"></path><path d="M308.298 51.899H330.346V60.0813C334.63 55.9902 338.283 53.1848 341.181 51.6652C344.961 50.0287 349.119 49.2105 353.276 49.3274C364.111 49.3274 372.553 53.6524 378.852 62.4192C385.782 53.6524 395.105 49.3274 406.948 49.3274C428.492 49.3274 439.201 61.484 439.201 85.6804V140.502H417.027V91.2912C417.027 82.7581 415.893 76.7967 413.751 73.29C411.484 69.7833 407.704 68.0299 402.412 67.913C396.365 67.913 391.955 70.0171 389.183 74.342C386.412 78.5501 385.026 85.4466 385.026 94.7979V140.619H362.851V91.525C362.851 75.7447 357.938 67.913 348.111 67.913C341.937 67.913 337.402 70.0171 334.504 74.342C331.606 78.667 330.22 85.4466 330.22 94.681V140.502H308.172L308.298 51.899Z"></path><path d="M453.813 14.9638C453.813 11.4571 455.325 8.06729 458.097 5.72948C463.641 0.586284 472.712 0.469393 478.381 5.72948C481.153 8.18418 482.665 11.574 482.665 15.0807C482.791 18.5875 481.153 22.0942 478.381 24.5489C475.736 27.1205 472.082 28.5232 468.302 28.5232C464.397 28.6401 460.743 27.1205 458.097 24.5489C455.325 22.0942 453.813 18.5875 453.813 14.9638ZM479.263 51.9013V140.505H457.215V51.9013H479.263Z"></path><path d="M497.158 51.9H519.332V60.0824C527.018 52.952 535.711 49.4453 545.412 49.4453C556.499 49.4453 565.193 52.7183 571.366 59.1472C576.784 64.6411 579.43 73.6417 579.43 86.149V140.503H557.255V91.0584C557.255 82.2916 555.996 76.3302 553.35 72.9404C550.704 69.6674 546.042 67.9141 539.491 67.7972C532.183 67.7972 527.018 70.0181 523.868 74.5768C520.718 79.1356 519.332 86.7335 519.332 97.7212V140.386H497.158V51.9V51.9Z"></path><path d="M684.251 100.992H615.838C616.468 108.239 618.988 114.084 623.524 118.409C628.059 122.734 634.359 124.955 640.91 124.721C645.698 124.955 650.486 123.669 654.517 121.097C658.045 118.643 662.077 114.201 666.612 107.655L685.259 117.24C682.613 121.448 679.589 125.306 676.188 128.929C673.164 132.085 669.762 134.774 665.856 136.995C662.203 139.099 658.171 140.618 654.013 141.553C649.478 142.605 644.816 143.073 640.154 142.956C625.918 142.956 614.452 138.748 605.885 130.215C597.318 121.682 592.908 110.344 592.908 96.1997C592.908 82.1728 597.066 70.8344 605.507 62.1845C613.949 53.5346 625.036 49.2096 639.021 49.3265C653.131 49.3265 664.219 53.5346 672.408 61.8338C680.597 70.1331 684.629 81.5884 684.629 96.1997L684.251 100.992ZM661.573 84.2769C658.549 73.406 651.116 67.9122 639.273 67.9122C636.753 67.9122 634.107 68.2628 631.713 69.0811C629.445 69.7824 627.177 70.9513 625.288 72.354C623.398 73.7567 621.634 75.5101 620.374 77.4972C618.988 79.6012 617.854 81.9391 617.224 84.2769H661.573Z"></path><path d="M678.318 30.3864V17.8068H684.693C685.205 17.8068 685.761 17.9545 686.364 18.25C686.966 18.5341 687.477 18.9773 687.898 19.5795C688.33 20.1705 688.545 20.9205 688.545 21.8295C688.545 22.75 688.324 23.5341 687.881 24.1818C687.438 24.8182 686.898 25.3011 686.261 25.6307C685.636 25.9602 685.045 26.125 684.489 26.125H679.886V24.0795H683.636C684.011 24.0795 684.415 23.892 684.847 23.517C685.29 23.142 685.511 22.5795 685.511 21.8295C685.511 21.0568 685.29 20.5341 684.847 20.2614C684.415 19.9886 684.034 19.8523 683.705 19.8523H681.08V30.3864H678.318ZM685.92 24.4545L689.057 30.3864H686.023L682.955 24.4545H685.92ZM683.091 37.8864C681.205 37.8864 679.438 37.5341 677.79 36.8295C676.142 36.125 674.693 35.1477 673.443 33.8977C672.193 32.6477 671.216 31.1989 670.511 29.5511C669.807 27.9034 669.455 26.1364 669.455 24.25C669.455 22.3636 669.807 20.5966 670.511 18.9489C671.216 17.3011 672.193 15.8523 673.443 14.6023C674.693 13.3523 676.142 12.375 677.79 11.6705C679.438 10.9659 681.205 10.6136 683.091 10.6136C684.977 10.6136 686.744 10.9659 688.392 11.6705C690.04 12.375 691.489 13.3523 692.739 14.6023C693.989 15.8523 694.966 17.3011 695.67 18.9489C696.375 20.5966 696.727 22.3636 696.727 24.25C696.727 26.1364 696.375 27.9034 695.67 29.5511C694.966 31.1989 693.989 32.6477 692.739 33.8977C691.489 35.1477 690.04 36.125 688.392 36.8295C686.744 37.5341 684.977 37.8864 683.091 37.8864ZM683.091 34.6136C685 34.6136 686.739 34.1477 688.307 33.2159C689.875 32.2841 691.125 31.0341 692.057 29.4659C692.989 27.8977 693.455 26.1591 693.455 24.25C693.455 22.3409 692.989 20.6023 692.057 19.0341C691.125 17.4659 689.875 16.2159 688.307 15.2841C686.739 14.3523 685 13.8864 683.091 13.8864C681.182 13.8864 679.443 14.3523 677.875 15.2841C676.307 16.2159 675.057 17.4659 674.125 19.0341C673.193 20.6023 672.727 22.3409 672.727 24.25C672.727 26.1591 673.193 27.8977 674.125 29.4659C675.057 31.0341 676.307 32.2841 677.875 33.2159C679.443 34.1477 681.182 34.6136 683.091 34.6136Z"></path></g><defs><clipPath id="clip0_12_7"><rect width="700" height="143.074" fill="white"></rect></clipPath></defs></svg>